<svg width="92" height="47" viewBox="0 0 92 47" fill="none" xmlns="http://www.w3.org/2000/svg">
<path d="M49 7C59.0261 7 67.3289 14.3775 68.7764 24H69C81.7025 24 92 34.2975 92 47H16C16 37.8753 21.313 29.9906 29.0146 26.2734C29.3971 15.5643 38.1976 7 49 7Z" fill="white"/>
<path d="M57 0C60.3137 0 63 2.68629 63 6C63 9.31371 60.3137 12 57 12C55.9538 12 54.9706 11.7315 54.1143 11.2607L44.6582 23.2197C45.4966 24.2516 46 25.5668 46 27C46 30.3137 43.3137 33 40 33C36.6863 33 34 30.3137 34 27C34 26.4503 34.0744 25.9179 34.2129 25.4121L28.1738 22.0371C27.1311 23.8096 25.2052 25 23 25C21.4122 25 19.9697 24.382 18.8965 23.375L11.1396 30.9033C11.6855 31.8074 12 32.8669 12 34C12 37.3137 9.31371 40 6 40C2.68629 40 0 37.3137 0 34C0 30.6863 2.68629 28 6 28C7.45766 28 8.79341 28.5204 9.83301 29.3848L17.6787 21.7705C17.2462 20.9415 17 19.9998 17 19C17 15.6863 19.6863 13 23 13C26.3137 13 29 15.6863 29 19C29 19.3915 28.9603 19.7739 28.8887 20.1445L35.0605 23.5938C36.1431 22.0269 37.9515 21 40 21C41.1577 21 42.2385 21.3285 43.1553 21.8965L52.5459 10.0195C51.5852 8.95568 51 7.54629 51 6C51 2.68629 53.6863 0 57 0Z" fill="#FFAC92"/>
</svg>
